<mxfile host="app.diagrams.net" modified="2021-07-29T12:10:19.133Z" agent="5.0 (Windows NT 10.0; WOW64) AppleWebKit/537.36 (KHTML, like Gecko) Chrome/91.0.4472.124 Safari/537.36" etag="Pnr-Zd-S7g0_YhFWgEIU" version="14.8.1" type="github" pages="3">
  <diagram id="sb_V-hcNXjzHB9yhCUq3" name="AD与API服务的底层ip关系">
    <mxGraphModel dx="1422" dy="706" grid="1" gridSize="10" guides="1" tooltips="1" connect="1" arrows="1" fold="1" page="1" pageScale="1" pageWidth="827" pageHeight="1169" math="0" shadow="0">
      <root>
        <mxCell id="0" />
        <mxCell id="1" parent="0" />
        <mxCell id="2CTaEZxf2c3Y_vctXRp9-1" value="" style="rounded=1;whiteSpace=wrap;html=1;fontStyle=1;fontSize=14;fillColor=#f8cecc;strokeColor=#b85450;" vertex="1" parent="1">
          <mxGeometry x="90" y="310" width="140" height="180" as="geometry" />
        </mxCell>
        <mxCell id="2CTaEZxf2c3Y_vctXRp9-2" value="" style="rounded=1;whiteSpace=wrap;html=1;fontStyle=1;fontSize=14;fillColor=#dae8fc;strokeColor=#6c8ebf;" vertex="1" parent="1">
          <mxGeometry x="330" y="310" width="140" height="180" as="geometry" />
        </mxCell>
        <mxCell id="2CTaEZxf2c3Y_vctXRp9-3" value="" style="rounded=1;whiteSpace=wrap;html=1;fontStyle=1;fontSize=14;fillColor=#e1d5e7;strokeColor=#9673a6;" vertex="1" parent="1">
          <mxGeometry x="550" y="310" width="140" height="180" as="geometry" />
        </mxCell>
        <mxCell id="2CTaEZxf2c3Y_vctXRp9-4" value="AD1" style="text;html=1;strokeColor=none;fillColor=none;align=center;verticalAlign=middle;whiteSpace=wrap;rounded=0;fontStyle=1;fontSize=14;" vertex="1" parent="1">
          <mxGeometry x="100" y="320" width="40" height="20" as="geometry" />
        </mxCell>
        <mxCell id="2CTaEZxf2c3Y_vctXRp9-5" value="AD2" style="text;html=1;strokeColor=none;fillColor=none;align=center;verticalAlign=middle;whiteSpace=wrap;rounded=0;fontStyle=1;fontSize=14;" vertex="1" parent="1">
          <mxGeometry x="340" y="320" width="40" height="20" as="geometry" />
        </mxCell>
        <mxCell id="2CTaEZxf2c3Y_vctXRp9-6" value="API" style="text;html=1;strokeColor=none;fillColor=none;align=center;verticalAlign=middle;whiteSpace=wrap;rounded=0;fontStyle=1;fontSize=14;" vertex="1" parent="1">
          <mxGeometry x="560" y="310" width="40" height="20" as="geometry" />
        </mxCell>
        <mxCell id="2CTaEZxf2c3Y_vctXRp9-7" value="vip1&amp;nbsp; &amp;nbsp; ip1" style="text;html=1;strokeColor=none;fillColor=none;align=center;verticalAlign=middle;whiteSpace=wrap;rounded=0;fontStyle=1;fontSize=14;" vertex="1" parent="1">
          <mxGeometry x="120" y="360" width="80" height="90" as="geometry" />
        </mxCell>
        <mxCell id="2CTaEZxf2c3Y_vctXRp9-9" value="vip2&amp;nbsp; &amp;nbsp; &amp;nbsp;ip2" style="text;html=1;strokeColor=none;fillColor=none;align=center;verticalAlign=middle;whiteSpace=wrap;rounded=0;fontStyle=1;fontSize=14;" vertex="1" parent="1">
          <mxGeometry x="350" y="360" width="80" height="90" as="geometry" />
        </mxCell>
        <mxCell id="2CTaEZxf2c3Y_vctXRp9-10" value="vip3&amp;nbsp; ip3" style="text;html=1;strokeColor=none;fillColor=none;align=center;verticalAlign=middle;whiteSpace=wrap;rounded=0;fontStyle=1;fontSize=14;" vertex="1" parent="1">
          <mxGeometry x="570" y="360" width="80" height="80" as="geometry" />
        </mxCell>
        <mxCell id="2CTaEZxf2c3Y_vctXRp9-8" value="" style="edgeStyle=orthogonalEdgeStyle;rounded=0;orthogonalLoop=1;jettySize=auto;html=1;fontStyle=1;fontSize=14;curved=1;" edge="1" parent="1">
          <mxGeometry relative="1" as="geometry">
            <mxPoint x="190" y="420" as="sourcePoint" />
            <mxPoint x="360" y="410" as="targetPoint" />
            <Array as="points">
              <mxPoint x="360" y="440" />
            </Array>
          </mxGeometry>
        </mxCell>
        <mxCell id="2CTaEZxf2c3Y_vctXRp9-13" value="" style="edgeStyle=orthogonalEdgeStyle;rounded=0;orthogonalLoop=1;jettySize=auto;html=1;fontStyle=1;fontSize=14;curved=1;" edge="1" parent="1">
          <mxGeometry relative="1" as="geometry">
            <mxPoint x="420" y="420" as="sourcePoint" />
            <mxPoint x="590" y="410" as="targetPoint" />
            <Array as="points">
              <mxPoint x="590" y="440" />
            </Array>
          </mxGeometry>
        </mxCell>
        <mxCell id="2CTaEZxf2c3Y_vctXRp9-14" value="相同" style="text;html=1;strokeColor=none;fillColor=none;align=center;verticalAlign=middle;whiteSpace=wrap;rounded=0;fontSize=14;" vertex="1" parent="1">
          <mxGeometry x="260" y="420" width="40" height="20" as="geometry" />
        </mxCell>
        <mxCell id="2CTaEZxf2c3Y_vctXRp9-15" value="相同" style="text;html=1;strokeColor=none;fillColor=none;align=center;verticalAlign=middle;whiteSpace=wrap;rounded=0;fontSize=14;" vertex="1" parent="1">
          <mxGeometry x="490" y="410" width="40" height="20" as="geometry" />
        </mxCell>
      </root>
    </mxGraphModel>
  </diagram>
  <diagram id="nOHiLOgA8v2FJ5OYFHcV" name="新增API服务流程">
    <mxGraphModel dx="1422" dy="706" grid="1" gridSize="10" guides="1" tooltips="1" connect="1" arrows="1" fold="1" page="1" pageScale="1" pageWidth="827" pageHeight="1169" math="0" shadow="0">
      <root>
        <mxCell id="N0FcCdIXHvV1KCsFMpFl-0" />
        <mxCell id="N0FcCdIXHvV1KCsFMpFl-1" parent="N0FcCdIXHvV1KCsFMpFl-0" />
        <mxCell id="N0FcCdIXHvV1KCsFMpFl-36" value="" style="rounded=0;whiteSpace=wrap;html=1;fontSize=14;" vertex="1" parent="N0FcCdIXHvV1KCsFMpFl-1">
          <mxGeometry x="190" y="360" width="120" height="50" as="geometry" />
        </mxCell>
        <mxCell id="N0FcCdIXHvV1KCsFMpFl-24" value="" style="edgeStyle=orthogonalEdgeStyle;rounded=0;orthogonalLoop=1;jettySize=auto;html=1;fontSize=14;fontStyle=1" edge="1" parent="N0FcCdIXHvV1KCsFMpFl-1" source="N0FcCdIXHvV1KCsFMpFl-2" target="N0FcCdIXHvV1KCsFMpFl-23">
          <mxGeometry relative="1" as="geometry" />
        </mxCell>
        <mxCell id="N0FcCdIXHvV1KCsFMpFl-2" value="新增 API 分组" style="rounded=0;whiteSpace=wrap;html=1;fontSize=14;fillColor=#dae8fc;strokeColor=#6c8ebf;fontStyle=1" vertex="1" parent="N0FcCdIXHvV1KCsFMpFl-1">
          <mxGeometry x="190" y="140" width="120" height="60" as="geometry" />
        </mxCell>
        <mxCell id="N0FcCdIXHvV1KCsFMpFl-3" value="" style="rounded=0;whiteSpace=wrap;html=1;fontSize=14;fontStyle=1;fillColor=#e1d5e7;strokeColor=#9673a6;" vertex="1" parent="N0FcCdIXHvV1KCsFMpFl-1">
          <mxGeometry x="190" y="270" width="120" height="140" as="geometry" />
        </mxCell>
        <mxCell id="N0FcCdIXHvV1KCsFMpFl-20" style="edgeStyle=orthogonalEdgeStyle;rounded=0;orthogonalLoop=1;jettySize=auto;html=1;exitX=0.5;exitY=1;exitDx=0;exitDy=0;entryX=1;entryY=0.5;entryDx=0;entryDy=0;fontSize=14;fontStyle=1" edge="1" parent="N0FcCdIXHvV1KCsFMpFl-1" source="N0FcCdIXHvV1KCsFMpFl-4" target="N0FcCdIXHvV1KCsFMpFl-18">
          <mxGeometry relative="1" as="geometry" />
        </mxCell>
        <mxCell id="N0FcCdIXHvV1KCsFMpFl-4" value="调用 API 认证接口" style="rounded=0;whiteSpace=wrap;html=1;fontSize=14;fontStyle=1;fillColor=#e1d5e7;strokeColor=#9673a6;" vertex="1" parent="N0FcCdIXHvV1KCsFMpFl-1">
          <mxGeometry x="460" y="460" width="120" height="60" as="geometry" />
        </mxCell>
        <mxCell id="N0FcCdIXHvV1KCsFMpFl-5" value="&lt;br&gt;&lt;br&gt;&lt;span style=&quot;color: rgb(0, 0, 0); font-family: helvetica; font-size: 14px; font-style: normal; letter-spacing: normal; text-align: center; text-indent: 0px; text-transform: none; word-spacing: 0px; background-color: rgb(248, 249, 250); display: inline; float: none;&quot;&gt;新增 API 服务&lt;/span&gt;&lt;br&gt;" style="text;html=1;strokeColor=none;fillColor=none;align=center;verticalAlign=middle;whiteSpace=wrap;rounded=0;fontSize=14;fontStyle=1" vertex="1" parent="N0FcCdIXHvV1KCsFMpFl-1">
          <mxGeometry x="200" y="270" width="90" height="20" as="geometry" />
        </mxCell>
        <mxCell id="N0FcCdIXHvV1KCsFMpFl-6" value="1、构建 API&amp;nbsp;" style="rounded=0;whiteSpace=wrap;html=1;fontSize=14;fontStyle=1;fillColor=#e1d5e7;strokeColor=#9673a6;" vertex="1" parent="N0FcCdIXHvV1KCsFMpFl-1">
          <mxGeometry x="190" y="310" width="120" height="50" as="geometry" />
        </mxCell>
        <mxCell id="N0FcCdIXHvV1KCsFMpFl-14" value="" style="edgeStyle=orthogonalEdgeStyle;curved=1;rounded=0;orthogonalLoop=1;jettySize=auto;html=1;fontSize=14;fontStyle=1" edge="1" parent="N0FcCdIXHvV1KCsFMpFl-1" source="N0FcCdIXHvV1KCsFMpFl-7" target="N0FcCdIXHvV1KCsFMpFl-13">
          <mxGeometry relative="1" as="geometry" />
        </mxCell>
        <mxCell id="N0FcCdIXHvV1KCsFMpFl-7" value="2、保存 API" style="text;html=1;strokeColor=none;fillColor=none;align=center;verticalAlign=middle;whiteSpace=wrap;rounded=0;fontSize=14;fontStyle=1" vertex="1" parent="N0FcCdIXHvV1KCsFMpFl-1">
          <mxGeometry x="210" y="370" width="80" height="20" as="geometry" />
        </mxCell>
        <mxCell id="N0FcCdIXHvV1KCsFMpFl-12" value="&lt;font color=&quot;#ff4912&quot;&gt;得到 API 分组id&lt;/font&gt;" style="text;html=1;strokeColor=none;fillColor=none;align=center;verticalAlign=middle;whiteSpace=wrap;rounded=0;fontSize=14;fontStyle=1" vertex="1" parent="N0FcCdIXHvV1KCsFMpFl-1">
          <mxGeometry x="320" y="150" width="110" height="20" as="geometry" />
        </mxCell>
        <mxCell id="N0FcCdIXHvV1KCsFMpFl-15" value="" style="edgeStyle=orthogonalEdgeStyle;curved=1;rounded=0;orthogonalLoop=1;jettySize=auto;html=1;fontSize=14;fontStyle=1" edge="1" parent="N0FcCdIXHvV1KCsFMpFl-1" source="N0FcCdIXHvV1KCsFMpFl-13" target="N0FcCdIXHvV1KCsFMpFl-4">
          <mxGeometry relative="1" as="geometry" />
        </mxCell>
        <mxCell id="N0FcCdIXHvV1KCsFMpFl-19" value="" style="edgeStyle=orthogonalEdgeStyle;curved=1;rounded=0;orthogonalLoop=1;jettySize=auto;html=1;fontSize=14;fontStyle=1" edge="1" parent="N0FcCdIXHvV1KCsFMpFl-1" source="N0FcCdIXHvV1KCsFMpFl-13" target="N0FcCdIXHvV1KCsFMpFl-18">
          <mxGeometry relative="1" as="geometry" />
        </mxCell>
        <mxCell id="N0FcCdIXHvV1KCsFMpFl-13" value="是否开启认证" style="rhombus;whiteSpace=wrap;html=1;fontSize=14;fontStyle=1;fillColor=#d5e8d4;strokeColor=#82b366;" vertex="1" parent="N0FcCdIXHvV1KCsFMpFl-1">
          <mxGeometry x="190" y="450" width="120" height="80" as="geometry" />
        </mxCell>
        <mxCell id="N0FcCdIXHvV1KCsFMpFl-16" value="是" style="text;html=1;strokeColor=none;fillColor=none;align=center;verticalAlign=middle;whiteSpace=wrap;rounded=0;fontSize=14;fontStyle=1" vertex="1" parent="N0FcCdIXHvV1KCsFMpFl-1">
          <mxGeometry x="355" y="470" width="40" height="20" as="geometry" />
        </mxCell>
        <mxCell id="N0FcCdIXHvV1KCsFMpFl-29" value="" style="edgeStyle=orthogonalEdgeStyle;rounded=0;orthogonalLoop=1;jettySize=auto;html=1;fontSize=14;fontStyle=1" edge="1" parent="N0FcCdIXHvV1KCsFMpFl-1" source="N0FcCdIXHvV1KCsFMpFl-18" target="N0FcCdIXHvV1KCsFMpFl-28">
          <mxGeometry relative="1" as="geometry" />
        </mxCell>
        <mxCell id="N0FcCdIXHvV1KCsFMpFl-18" value="调用 API 发布接口" style="whiteSpace=wrap;html=1;fontSize=14;fontStyle=1;fillColor=#e1d5e7;strokeColor=#9673a6;" vertex="1" parent="N0FcCdIXHvV1KCsFMpFl-1">
          <mxGeometry x="190" y="585" width="120" height="55" as="geometry" />
        </mxCell>
        <mxCell id="N0FcCdIXHvV1KCsFMpFl-25" style="edgeStyle=orthogonalEdgeStyle;rounded=0;orthogonalLoop=1;jettySize=auto;html=1;fontSize=14;entryX=0.75;entryY=0;entryDx=0;entryDy=0;fontStyle=1" edge="1" parent="N0FcCdIXHvV1KCsFMpFl-1" source="N0FcCdIXHvV1KCsFMpFl-23" target="N0FcCdIXHvV1KCsFMpFl-5">
          <mxGeometry relative="1" as="geometry">
            <mxPoint x="311" y="290" as="targetPoint" />
            <Array as="points">
              <mxPoint x="510" y="250" />
              <mxPoint x="268" y="250" />
            </Array>
          </mxGeometry>
        </mxCell>
        <mxCell id="N0FcCdIXHvV1KCsFMpFl-23" value="更新 API 分组表的id" style="rounded=1;whiteSpace=wrap;html=1;fontSize=14;fontStyle=1;fillColor=#dae8fc;strokeColor=#6c8ebf;" vertex="1" parent="N0FcCdIXHvV1KCsFMpFl-1">
          <mxGeometry x="440" y="140" width="140" height="60" as="geometry" />
        </mxCell>
        <mxCell id="N0FcCdIXHvV1KCsFMpFl-33" value="" style="edgeStyle=orthogonalEdgeStyle;rounded=0;orthogonalLoop=1;jettySize=auto;html=1;fontSize=14;fontStyle=1" edge="1" parent="N0FcCdIXHvV1KCsFMpFl-1" source="N0FcCdIXHvV1KCsFMpFl-26" target="N0FcCdIXHvV1KCsFMpFl-30">
          <mxGeometry relative="1" as="geometry" />
        </mxCell>
        <mxCell id="N0FcCdIXHvV1KCsFMpFl-26" value="开始" style="ellipse;whiteSpace=wrap;html=1;fontSize=14;fillColor=#1ba1e2;strokeColor=#006EAF;fontColor=#ffffff;fontStyle=1" vertex="1" parent="N0FcCdIXHvV1KCsFMpFl-1">
          <mxGeometry y="50" width="120" height="50" as="geometry" />
        </mxCell>
        <mxCell id="N0FcCdIXHvV1KCsFMpFl-28" value="结束" style="ellipse;whiteSpace=wrap;html=1;fontSize=14;fillColor=#1ba1e2;strokeColor=#006EAF;fontColor=#ffffff;fontStyle=1" vertex="1" parent="N0FcCdIXHvV1KCsFMpFl-1">
          <mxGeometry x="190" y="670" width="120" height="50" as="geometry" />
        </mxCell>
        <mxCell id="N0FcCdIXHvV1KCsFMpFl-31" value="" style="edgeStyle=orthogonalEdgeStyle;rounded=0;orthogonalLoop=1;jettySize=auto;html=1;fontSize=14;fontStyle=1" edge="1" parent="N0FcCdIXHvV1KCsFMpFl-1" source="N0FcCdIXHvV1KCsFMpFl-30" target="N0FcCdIXHvV1KCsFMpFl-2">
          <mxGeometry relative="1" as="geometry" />
        </mxCell>
        <mxCell id="N0FcCdIXHvV1KCsFMpFl-30" value="登记服务表&lt;br&gt;执行前置AD资源下发或检查操作" style="rounded=0;whiteSpace=wrap;html=1;fontSize=14;fillColor=#dae8fc;strokeColor=#6c8ebf;fontStyle=1" vertex="1" parent="N0FcCdIXHvV1KCsFMpFl-1">
          <mxGeometry y="140" width="120" height="60" as="geometry" />
        </mxCell>
        <mxCell id="N0FcCdIXHvV1KCsFMpFl-35" value="否" style="text;html=1;strokeColor=none;fillColor=none;align=center;verticalAlign=middle;whiteSpace=wrap;rounded=0;fontSize=14;fontStyle=1" vertex="1" parent="N0FcCdIXHvV1KCsFMpFl-1">
          <mxGeometry x="240" y="550" width="40" height="20" as="geometry" />
        </mxCell>
      </root>
    </mxGraphModel>
  </diagram>
  <diagram id="Vepcy5eFFjgHjCgZ-YPG" name="Page-3">
    <mxGraphModel dx="1422" dy="706" grid="1" gridSize="10" guides="1" tooltips="1" connect="1" arrows="1" fold="1" page="1" pageScale="1" pageWidth="827" pageHeight="1169" math="0" shadow="0">
      <root>
        <mxCell id="3ZHVSXFZg6gd_dCHkzc6-0" />
        <mxCell id="3ZHVSXFZg6gd_dCHkzc6-1" parent="3ZHVSXFZg6gd_dCHkzc6-0" />
      </root>
    </mxGraphModel>
  </diagram>
</mxfile>
